<svg version="1.1" id="Layer_1" xmlns="http://www.w3.org/2000/svg" xmlns:xlink="http://www.w3.org/1999/xlink" x="0px" y="0px"
	 width="100%" viewBox="0 0 1916 958" enable-background="new 0 0 1916 958" xml:space="preserve">
<path fill="#FFFFFF" opacity="1.000000" stroke="none" 
	d="
M1275.000000,959.000000 
	C850.000061,959.000000 425.500153,959.000000 1.000171,959.000000 
	C1.000114,639.666809 1.000114,320.333588 1.000057,1.000299 
	C639.666443,1.000200 1278.332886,1.000200 1916.999512,1.000100 
	C1916.999634,320.333038 1916.999634,639.666077 1916.999756,958.999512 
	C1703.166626,959.000000 1489.333374,959.000000 1275.000000,959.000000 
M1813.500000,583.154724 
	C1841.983154,583.154663 1870.467041,583.047424 1898.948730,583.254517 
	C1904.016235,583.291382 1905.694580,581.567139 1905.635498,576.651062 
	C1905.455078,561.662170 1905.592163,546.669678 1905.584106,531.678589 
	C1905.557983,483.374573 1905.550537,435.070465 1905.457642,386.766571 
	C1905.444702,380.057129 1905.203247,380.003296 1898.698486,380.002594 
	C1853.558472,379.997620 1808.418213,380.077240 1763.279053,379.892670 
	C1758.194092,379.871887 1756.743408,381.411713 1756.754272,386.406586 
	C1756.892334,450.035339 1756.842773,513.664429 1756.859863,577.293457 
	C1756.860352,579.067505 1757.076294,580.841492 1757.226807,583.154785 
	C1775.928589,583.154785 1794.214233,583.154785 1813.500000,583.154724 
M1121.591431,527.012390 
	C1130.972290,544.669128 1140.436523,562.282593 1149.646973,580.027771 
	C1151.082031,582.792480 1152.896973,583.203247 1155.518677,583.193726 
	C1170.513062,583.139160 1185.516602,582.867371 1200.498413,583.304321 
	C1207.185547,583.499390 1207.142578,579.915527 1204.711304,575.559082 
	C1196.456909,560.768677 1188.070068,546.052185 1179.753540,531.296326 
	C1174.392456,521.784241 1169.066040,512.252686 1163.747070,502.770630 
	C1177.577026,494.907867 1187.821289,484.634430 1193.328491,470.012665 
	C1197.283936,459.510529 1197.460693,448.599121 1196.936035,437.681702 
	C1196.063477,419.530151 1188.777344,404.622192 1173.616089,393.984802 
	C1158.505737,383.383026 1141.049072,380.810028 1123.364868,380.314453 
	C1099.226562,379.638000 1075.056396,380.173065 1050.903320,379.893524 
	C1046.159546,379.838654 1045.076904,381.500885 1045.084473,385.899231 
	C1045.194214,449.709534 1045.206665,513.520203 1045.065186,577.330383 
	C1045.054565,582.127869 1046.819214,583.306458 1051.214966,583.238220 
	C1064.040649,583.039307 1076.871460,583.176880 1089.700195,583.163635 
	C1095.924438,583.157227 1096.158325,582.929504 1096.162598,576.648743 
	C1096.176270,556.989136 1096.167725,537.329468 1096.167725,517.669861 
	C1096.167725,515.920593 1096.167725,514.171326 1096.167725,512.333923 
	C1102.435425,512.333923 1108.729614,510.682709 1113.136719,512.856873 
	C1116.655884,514.592957 1117.869141,520.991516 1120.129517,525.308289 
	C1120.356079,525.741028 1120.744995,526.088623 1121.591431,527.012390 
M147.472595,583.164612 
	C148.972107,583.164612 150.471619,583.164734 151.971130,583.164490 
	C160.163940,583.163147 160.164490,583.163147 160.164520,574.948975 
	C160.164688,522.131104 160.164627,469.313232 160.164566,416.495361 
	C160.164566,405.998444 160.115112,395.501129 160.195969,385.004822 
	C160.218231,382.113312 159.607910,380.014984 156.214111,380.013458 
	C140.909821,380.006653 125.605530,380.010498 109.462051,380.010498 
	C109.462051,405.487213 109.462051,430.503021 109.462051,455.453766 
	C93.226997,455.453766 77.838173,455.453766 62.164585,455.453766 
	C62.164585,453.260376 62.164589,451.443329 62.164585,449.626312 
	C62.164539,428.299225 62.155701,406.972137 62.175167,385.645050 
	C62.177704,382.862976 62.323635,380.032257 58.372169,380.026611 
	C43.058891,380.004761 27.745567,380.017731 12.014734,380.017731 
	C12.014734,447.849915 12.014734,515.303345 12.014734,583.164490 
	C27.037069,583.164490 41.518192,583.004395 55.992226,583.254700 
	C60.809185,583.337891 62.309242,581.784973 62.263569,576.942749 
	C62.043541,553.618286 62.164577,530.290649 62.164585,506.964142 
	C62.164585,505.185944 62.164589,503.407776 62.164589,501.443115 
	C78.151466,501.443115 93.557701,501.443115 109.753769,501.443115 
	C109.753769,528.733887 109.753769,555.754639 109.753769,583.164673 
	C122.520782,583.164673 134.501251,583.164673 147.472595,583.164612 
M600.803467,532.340881 
	C602.451660,530.279297 604.099915,528.217773 606.083069,525.737305 
	C618.414307,544.415588 630.011169,561.893799 641.483398,579.453491 
	C643.185059,582.057983 645.087219,583.257996 648.283630,583.227539 
	C662.945068,583.087708 677.608948,583.209839 692.270935,583.099121 
	C693.760193,583.087891 696.345886,582.366821 696.501709,581.589966 
	C696.841614,579.895020 696.454590,577.603149 695.472534,576.163879 
	C685.361389,561.345032 675.076416,546.644836 664.831360,531.917419 
	C655.707825,518.802246 646.573669,505.694550 637.236267,492.284973 
	C644.337708,484.493713 651.233154,476.907593 658.151733,469.342682 
	C668.906494,457.583252 679.716553,445.873901 690.382751,434.034851 
	C691.515747,432.777252 691.845032,430.795532 692.547180,429.149780 
	C690.627197,428.486816 688.713745,427.271820 686.786255,427.249176 
	C672.791931,427.084808 658.789673,427.368256 644.801514,427.031830 
	C640.716187,426.933594 637.955139,428.254974 635.410217,431.073730 
	C627.560547,439.768097 619.746399,448.497772 611.738037,457.044708 
	C604.330078,464.950836 596.689575,472.639099 588.535828,481.059113 
	C588.535828,478.779724 588.535828,477.056519 588.535828,475.333344 
	C588.535828,447.174133 588.537170,419.014923 588.533203,390.855713 
	C588.532898,388.523743 588.950134,386.059418 588.321838,383.904877 
	C587.879395,382.387421 586.011414,380.194183 584.748962,380.173279 
	C569.278687,379.916962 553.802734,380.006470 538.134399,380.006470 
	C538.134399,447.938385 538.134399,515.386780 538.134399,583.166321 
	C553.454041,583.166321 568.107117,583.040405 582.755798,583.242188 
	C587.215637,583.303650 588.628845,581.472412 588.575317,577.322083 
	C588.448792,567.492981 588.476135,557.660522 588.592346,547.831116 
	C588.612549,546.120178 588.849182,543.945007 589.886230,542.799561 
	C593.103760,539.245972 596.755066,536.085144 600.803467,532.340881 
M1736.201904,581.184204 
	C1735.767334,579.591736 1735.724609,577.729126 1734.840454,576.446411 
	C1716.137939,549.310181 1697.396851,522.199707 1678.469971,495.219818 
	C1676.664429,492.645752 1677.053833,491.478241 1678.953857,489.440247 
	C1695.943481,471.217712 1712.861938,452.928040 1729.664062,434.532654 
	C1730.929810,433.146942 1731.139160,430.796265 1731.839478,428.894165 
	C1730.065918,428.315948 1728.297241,427.254913 1726.517822,427.236389 
	C1713.019775,427.095886 1699.486938,427.723450 1686.032959,426.940369 
	C1678.401489,426.496185 1674.504883,430.553711 1670.512817,435.513458 
	C1669.696167,436.528137 1669.064087,437.707581 1668.168579,438.639771 
	C1660.133545,447.002777 1652.056152,455.324890 1644.001221,463.668732 
	C1643.426514,464.264038 1642.961304,464.964355 1642.394043,465.567810 
	C1637.837280,470.415619 1633.268433,475.252045 1627.840576,481.006317 
	C1627.840576,477.940857 1627.840454,476.320160 1627.840454,474.699432 
	C1627.840454,445.367310 1627.846680,416.035156 1627.835571,386.703033 
	C1627.833374,380.612122 1627.240967,380.008698 1621.348633,380.001984 
	C1608.682495,379.987518 1596.016357,379.989838 1583.350220,380.000885 
	C1577.125488,380.006287 1576.838013,380.276886 1576.837158,386.516846 
	C1576.828979,449.847565 1576.827881,513.178284 1576.850586,576.509033 
	C1576.851318,578.598694 1577.125488,580.688232 1577.299438,583.167725 
	C1580.029785,583.167725 1582.180298,583.168152 1584.330933,583.167603 
	C1597.497070,583.164246 1610.667603,583.315674 1623.822510,582.928833 
	C1625.209351,582.888000 1627.428101,579.791809 1627.656494,577.917480 
	C1628.216919,573.319336 1627.818970,568.606750 1627.845703,563.940430 
	C1627.882812,557.444824 1626.106079,550.131958 1628.516968,544.676270 
	C1631.092041,538.849365 1637.720581,534.857361 1642.411865,529.905334 
	C1645.160889,527.003540 1646.565063,527.529358 1648.710205,530.810303 
	C1659.393433,547.149414 1670.497559,563.214233 1681.100830,579.603699 
	C1682.833740,582.282104 1684.416138,583.214539 1687.321899,583.200195 
	C1701.987549,583.128357 1716.654175,583.204041 1731.319580,583.112671 
	C1732.836670,583.103210 1734.348999,582.331543 1736.201904,581.184204 
M1364.841309,573.359619 
	C1364.841309,555.038269 1365.072754,536.713135 1364.766235,518.396912 
	C1364.530762,504.325012 1364.576294,490.141632 1362.793457,476.226044 
	C1359.689087,451.992981 1346.036865,435.692535 1322.577759,427.942352 
	C1307.315430,422.900085 1291.753540,423.226349 1276.062866,424.975586 
	C1256.835205,427.119110 1239.429077,434.568298 1222.560425,443.445709 
	C1221.274048,444.122711 1220.126099,447.720825 1220.782837,449.005981 
	C1225.505615,458.247559 1230.863525,467.162628 1235.683960,476.357422 
	C1237.418945,479.666962 1239.419312,479.426422 1242.122437,478.240356 
	C1247.823364,475.738892 1253.557495,473.312653 1259.253418,470.800049 
	C1271.904175,465.219635 1285.140991,464.372528 1298.404297,467.187836 
	C1305.092896,468.607605 1310.809326,472.542114 1312.169189,480.558502 
	C1308.181519,481.058685 1304.461792,481.705811 1300.715332,481.964661 
	C1282.253052,483.240234 1264.046387,486.201813 1246.967285,493.363953 
	C1239.424561,496.527069 1232.056763,501.293762 1226.176880,506.959106 
	C1217.236816,515.572876 1214.619507,527.140564 1215.089966,539.535828 
	C1215.644287,554.132019 1220.744995,566.125488 1232.281128,575.600098 
	C1247.662109,588.232300 1265.142944,588.692627 1283.244385,585.194214 
	C1296.115845,582.706726 1307.385864,576.162415 1318.960693,568.296204 
	C1319.809937,571.866272 1320.874512,574.867188 1321.165649,577.941406 
	C1321.524658,581.735474 1322.989258,583.324890 1326.965576,583.237305 
	C1336.621216,583.024414 1346.284790,583.168579 1355.945190,583.168457 
	C1364.837280,583.168335 1364.837280,583.168152 1364.841309,573.359619 
M203.506439,501.046173 
	C200.086060,504.320129 195.973679,507.125244 193.377258,510.957458 
	C186.085510,521.719788 183.613846,533.564636 185.983047,546.661011 
	C188.550171,560.851440 195.540939,571.620056 207.681274,579.221130 
	C216.102905,584.493958 225.229858,586.786377 235.174500,586.927429 
	C247.975021,587.108887 260.033936,584.525085 271.383820,578.733154 
	C277.477600,575.623535 283.392487,572.163513 289.639130,568.723328 
	C290.198090,571.668579 290.846954,574.154358 291.109863,576.680298 
	C291.563629,581.040588 293.180481,583.425354 298.202271,583.264587 
	C308.351654,582.939758 318.518768,583.180969 328.678528,583.162903 
	C334.846161,583.151917 334.999512,582.981384 335.000641,576.570862 
	C335.005188,550.921570 335.169769,525.270508 334.909943,499.623871 
	C334.821503,490.895325 334.411102,482.039093 332.837219,473.482269 
	C328.876892,451.951019 316.622345,436.854828 295.917389,428.982574 
	C279.860077,422.877441 263.295685,423.040070 246.596725,424.989380 
	C227.950043,427.166046 210.859879,433.853241 194.458084,442.734772 
	C190.503616,444.876099 190.280136,447.139435 192.136719,450.580750 
	C196.609406,458.871124 201.279282,467.070068 205.350311,475.555054 
	C207.085007,479.170624 208.958496,479.742981 212.256195,478.266724 
	C217.166199,476.068665 222.133942,473.999878 227.051956,471.819397 
	C239.666061,466.226685 252.792328,464.337982 266.388367,466.751770 
	C274.093231,468.119690 279.903503,472.187866 283.121399,480.057892 
	C281.698822,480.472260 280.815369,480.854858 279.897095,480.978241 
	C267.007782,482.710266 254.013245,483.870331 241.248657,486.260803 
	C228.076141,488.727631 215.161743,492.474945 203.506439,501.046173 
M803.499878,520.537170 
	C817.325256,520.537231 831.150574,520.544250 844.975952,520.534180 
	C851.476746,520.529480 852.039429,519.801392 852.987305,513.263672 
	C854.642639,501.847687 854.343750,490.489227 851.935547,479.265472 
	C847.796509,459.975067 838.640808,443.928589 821.061707,433.691071 
	C802.687805,422.990723 782.748718,421.807800 762.543945,425.478363 
	C740.013184,429.571411 722.165833,441.809937 710.496277,461.469879 
	C698.554443,481.588470 695.945068,503.739990 701.336914,526.447083 
	C706.826965,549.568176 720.299255,567.265930 741.661682,577.628601 
	C763.825867,588.379944 787.442200,589.604675 811.295898,583.707153 
	C823.411316,580.711731 835.162903,576.562622 845.368225,569.078064 
	C846.573669,568.194031 847.879089,565.504883 847.388977,564.553101 
	C842.882568,555.801208 838.052917,547.212097 833.168579,538.660645 
	C831.842590,536.338867 829.897339,535.481628 827.102661,536.999084 
	C823.878235,538.749756 820.446533,540.155090 817.018433,541.488037 
	C800.461426,547.925598 783.891846,549.458374 767.544983,540.904541 
	C759.551636,536.721863 754.686523,530.060181 752.593506,520.536987 
	C769.602295,520.536987 786.051086,520.536987 803.499878,520.537170 
M1497.361816,423.998413 
	C1476.128418,422.291687 1457.905396,428.948120 1441.966064,444.523132 
	C1441.234131,440.103149 1440.484131,436.364227 1440.027466,432.589783 
	C1439.588257,428.959290 1438.296143,426.975342 1434.093750,427.078094 
	C1423.767090,427.330505 1413.422119,427.399536 1403.100830,427.053375 
	C1398.394043,426.895508 1396.872681,428.122864 1396.890991,433.044220 
	C1397.069824,481.041260 1396.998657,529.039246 1396.998657,577.036926 
	C1396.998657,578.823669 1396.998657,580.610413 1396.998657,582.752197 
	C1399.489136,582.913574 1401.441528,583.144409 1403.394531,583.149597 
	C1415.893921,583.182861 1428.393433,583.171875 1440.892822,583.164490 
	C1447.539429,583.160583 1447.836182,582.858887 1447.837280,576.044373 
	C1447.842041,546.045776 1447.819214,516.047180 1447.887329,486.048767 
	C1447.891602,484.167236 1447.947388,481.686127 1449.061523,480.503906 
	C1456.415039,472.700775 1464.983032,466.943085 1476.330078,467.912231 
	C1483.692017,468.540985 1489.744629,470.801758 1491.461182,478.968933 
	C1492.533081,484.069122 1493.686523,489.278503 1493.728638,494.447693 
	C1493.951538,521.777893 1493.826416,549.110901 1493.846802,576.442932 
	C1493.848389,578.539490 1494.041748,580.635864 1494.167725,583.166626 
	C1509.168579,583.166626 1523.643921,583.176575 1538.119263,583.161926 
	C1544.240723,583.155762 1544.530640,582.855286 1544.532471,576.562256 
	C1544.540527,547.396973 1544.831543,518.227051 1544.371460,489.069000 
	C1544.216309,479.245148 1543.276978,469.144562 1540.719971,459.705811 
	C1534.763428,437.718628 1520.878662,425.349640 1497.361816,423.998413 
M433.503876,540.192566 
	C422.126038,534.237122 416.277039,524.605774 414.368073,512.109070 
	C410.712555,488.178314 424.100830,469.516449 447.728455,466.297791 
	C460.912842,464.501770 472.756134,468.511200 483.507050,475.935516 
	C486.784027,478.198547 488.916199,478.071930 491.318726,474.683502 
	C496.997650,466.674255 502.757568,458.700165 508.929352,451.071594 
	C512.253540,446.962830 510.695892,444.810333 507.292114,442.204498 
	C490.564178,429.397827 471.776581,423.538757 450.675690,423.904083 
	C422.329803,424.394867 397.539185,432.395844 378.720184,454.878632 
	C369.336426,466.089264 363.978821,479.179688 362.303345,493.298798 
	C361.151520,503.004974 361.924347,513.190796 363.445740,522.910339 
	C366.566376,542.846558 376.343842,559.161682 393.112457,570.870789 
	C413.306091,584.971497 435.787262,588.803162 459.904327,586.076355 
	C478.470856,583.977051 494.999969,577.383911 509.853851,566.061768 
	C513.590454,563.213623 513.699219,560.805908 511.457367,557.361023 
	C507.292847,550.961792 503.092163,544.583862 499.051208,538.106873 
	C492.545166,527.678711 493.016815,529.264832 484.508209,534.517090 
	C468.694397,544.278809 452.065308,547.913757 433.503876,540.192566 
M887.998535,544.500000 
	C887.998535,555.495056 888.153381,566.493408 887.920959,577.483521 
	C887.830261,581.771851 889.160339,583.330505 893.583374,583.251099 
	C906.739868,583.014954 919.906006,583.014954 933.062622,583.248169 
	C937.702576,583.330383 939.115723,581.647583 939.078857,577.125671 
	C938.905151,555.803345 939.277100,534.473328 938.857056,513.157898 
	C938.703125,505.347839 940.473022,498.712128 944.795349,492.267670 
	C954.693176,477.510132 968.319397,469.369507 986.019165,469.188446 
	C993.201599,469.114990 1000.471191,470.800659 1007.578918,472.275116 
	C1013.614868,473.527222 1014.676086,473.308899 1016.177795,467.366211 
	C1018.866272,456.727295 1021.291260,446.016815 1024.239502,435.451508 
	C1025.169556,432.118500 1024.416870,430.543945 1021.509521,429.214996 
	C1008.231873,423.145935 994.219116,422.748627 980.210388,424.700775 
	C963.084167,427.087280 948.762329,435.059540 937.855835,448.761536 
	C936.794617,450.094818 935.304565,451.086670 933.293945,452.878235 
	C932.459656,445.657532 931.465759,439.360321 931.094971,433.026611 
	C930.852539,428.885834 929.526978,427.009125 925.129028,427.095642 
	C914.804382,427.298828 904.457397,427.497498 894.150574,427.022308 
	C888.778870,426.774658 887.887024,428.792786 887.908325,433.549835 
	C888.072327,470.199280 887.998535,506.849823 887.998535,544.500000 
z"/>
<path fill="#32C766" opacity="1.000000" stroke="none" 
	d="
M1813.000000,583.154785 
	C1794.214233,583.154785 1775.928589,583.154785 1757.226807,583.154785 
	C1757.076294,580.841492 1756.860352,579.067505 1756.859863,577.293457 
	C1756.842773,513.664429 1756.892334,450.035339 1756.754272,386.406586 
	C1756.743408,381.411713 1758.194092,379.871887 1763.279053,379.892670 
	C1808.418213,380.077240 1853.558472,379.997620 1898.698486,380.002594 
	C1905.203247,380.003296 1905.444702,380.057129 1905.457642,386.766571 
	C1905.550537,435.070465 1905.557983,483.374573 1905.584106,531.678589 
	C1905.592163,546.669678 1905.455078,561.662170 1905.635498,576.651062 
	C1905.694580,581.567139 1904.016235,583.291382 1898.948730,583.254517 
	C1870.467041,583.047424 1841.983154,583.154663 1813.000000,583.154785 
z"/>
<path fill="#3A434F" opacity="1.000000" stroke="none" 
	d="
M1121.324951,526.744080 
	C1120.744995,526.088623 1120.356079,525.741028 1120.129517,525.308289 
	C1117.869141,520.991516 1116.655884,514.592957 1113.136719,512.856873 
	C1108.729614,510.682709 1102.435425,512.333923 1096.167725,512.333923 
	C1096.167725,514.171326 1096.167725,515.920593 1096.167725,517.669861 
	C1096.167725,537.329468 1096.176270,556.989136 1096.162598,576.648743 
	C1096.158325,582.929504 1095.924438,583.157227 1089.700195,583.163635 
	C1076.871460,583.176880 1064.040649,583.039307 1051.214966,583.238220 
	C1046.819214,583.306458 1045.054565,582.127869 1045.065186,577.330383 
	C1045.206665,513.520203 1045.194214,449.709534 1045.084473,385.899231 
	C1045.076904,381.500885 1046.159546,379.838654 1050.903320,379.893524 
	C1075.056396,380.173065 1099.226562,379.638000 1123.364868,380.314453 
	C1141.049072,380.810028 1158.505737,383.383026 1173.616089,393.984802 
	C1188.777344,404.622192 1196.063477,419.530151 1196.936035,437.681702 
	C1197.460693,448.599121 1197.283936,459.510529 1193.328491,470.012665 
	C1187.821289,484.634430 1177.577026,494.907867 1163.747070,502.770630 
	C1169.066040,512.252686 1174.392456,521.784241 1179.753540,531.296326 
	C1188.070068,546.052185 1196.456909,560.768677 1204.711304,575.559082 
	C1207.142578,579.915527 1207.185547,583.499390 1200.498413,583.304321 
	C1185.516602,582.867371 1170.513062,583.139160 1155.518677,583.193726 
	C1152.896973,583.203247 1151.082031,582.792480 1149.646973,580.027771 
	C1140.436523,562.282593 1130.972290,544.669128 1121.324951,526.744080 
M1135.725708,466.356201 
	C1145.729370,460.988800 1147.571533,451.874054 1147.025391,441.683411 
	C1146.641235,434.511169 1143.850830,428.796722 1136.956665,425.768097 
	C1123.774658,419.977203 1109.966553,422.537048 1096.468750,422.037170 
	C1096.468750,438.566315 1096.468750,454.308258 1096.468750,470.532074 
	C1101.231079,470.532074 1105.697266,470.512085 1110.163208,470.536377 
	C1118.669678,470.582611 1127.156006,470.521698 1135.725708,466.356201 
z"/>
<path fill="#39424E" opacity="1.000000" stroke="none" 
	d="
M146.977142,583.164673 
	C134.501251,583.164673 122.520782,583.164673 109.753769,583.164673 
	C109.753769,555.754639 109.753769,528.733887 109.753769,501.443115 
	C93.557701,501.443115 78.151466,501.443115 62.164589,501.443115 
	C62.164589,503.407776 62.164585,505.185944 62.164585,506.964142 
	C62.164577,530.290649 62.043541,553.618286 62.263569,576.942749 
	C62.309242,581.784973 60.809185,583.337891 55.992226,583.254700 
	C41.518192,583.004395 27.037069,583.164490 12.014734,583.164490 
	C12.014734,515.303345 12.014734,447.849915 12.014734,380.017731 
	C27.745567,380.017731 43.058891,380.004761 58.372169,380.026611 
	C62.323635,380.032257 62.177704,382.862976 62.175167,385.645050 
	C62.155701,406.972137 62.164539,428.299225 62.164585,449.626312 
	C62.164589,451.443329 62.164585,453.260376 62.164585,455.453766 
	C77.838173,455.453766 93.226997,455.453766 109.462051,455.453766 
	C109.462051,430.503021 109.462051,405.487213 109.462051,380.010498 
	C125.605530,380.010498 140.909821,380.006653 156.214111,380.013458 
	C159.607910,380.014984 160.218231,382.113312 160.195969,385.004822 
	C160.115112,395.501129 160.164566,405.998444 160.164566,416.495361 
	C160.164627,469.313232 160.164688,522.131104 160.164520,574.948975 
	C160.164490,583.163147 160.163940,583.163147 151.971130,583.164490 
	C150.471619,583.164734 148.972107,583.164612 146.977142,583.164673 
z"/>
<path fill="#3A434F" opacity="1.000000" stroke="none" 
	d="
M600.520752,532.556396 
	C596.755066,536.085144 593.103760,539.245972 589.886230,542.799561 
	C588.849182,543.945007 588.612549,546.120178 588.592346,547.831116 
	C588.476135,557.660522 588.448792,567.492981 588.575317,577.322083 
	C588.628845,581.472412 587.215637,583.303650 582.755798,583.242188 
	C568.107117,583.040405 553.454041,583.166321 538.134399,583.166321 
	C538.134399,515.386780 538.134399,447.938385 538.134399,380.006470 
	C553.802734,380.006470 569.278687,379.916962 584.748962,380.173279 
	C586.011414,380.194183 587.879395,382.387421 588.321838,383.904877 
	C588.950134,386.059418 588.532898,388.523743 588.533203,390.855713 
	C588.537170,419.014923 588.535828,447.174133 588.535828,475.333344 
	C588.535828,477.056519 588.535828,478.779724 588.535828,481.059113 
	C596.689575,472.639099 604.330078,464.950836 611.738037,457.044708 
	C619.746399,448.497772 627.560547,439.768097 635.410217,431.073730 
	C637.955139,428.254974 640.716187,426.933594 644.801514,427.031830 
	C658.789673,427.368256 672.791931,427.084808 686.786255,427.249176 
	C688.713745,427.271820 690.627197,428.486816 692.547180,429.149780 
	C691.845032,430.795532 691.515747,432.777252 690.382751,434.034851 
	C679.716553,445.873901 668.906494,457.583252 658.151733,469.342682 
	C651.233154,476.907593 644.337708,484.493713 637.236267,492.284973 
	C646.573669,505.694550 655.707825,518.802246 664.831360,531.917419 
	C675.076416,546.644836 685.361389,561.345032 695.472534,576.163879 
	C696.454590,577.603149 696.841614,579.895020 696.501709,581.589966 
	C696.345886,582.366821 693.760193,583.087891 692.270935,583.099121 
	C677.608948,583.209839 662.945068,583.087708 648.283630,583.227539 
	C645.087219,583.257996 643.185059,582.057983 641.483398,579.453491 
	C630.011169,561.893799 618.414307,544.415588 606.083069,525.737305 
	C604.099915,528.217773 602.451660,530.279297 600.520752,532.556396 
z"/>
<path fill="#3A434F" opacity="1.000000" stroke="none" 
	d="
M1736.032715,581.548889 
	C1734.348999,582.331543 1732.836670,583.103210 1731.319580,583.112671 
	C1716.654175,583.204041 1701.987549,583.128357 1687.321899,583.200195 
	C1684.416138,583.214539 1682.833740,582.282104 1681.100830,579.603699 
	C1670.497559,563.214233 1659.393433,547.149414 1648.710205,530.810303 
	C1646.565063,527.529358 1645.160889,527.003540 1642.411865,529.905334 
	C1637.720581,534.857361 1631.092041,538.849365 1628.516968,544.676270 
	C1626.106079,550.131958 1627.882812,557.444824 1627.845703,563.940430 
	C1627.818970,568.606750 1628.216919,573.319336 1627.656494,577.917480 
	C1627.428101,579.791809 1625.209351,582.888000 1623.822510,582.928833 
	C1610.667603,583.315674 1597.497070,583.164246 1584.330933,583.167603 
	C1582.180298,583.168152 1580.029785,583.167725 1577.299438,583.167725 
	C1577.125488,580.688232 1576.851318,578.598694 1576.850586,576.509033 
	C1576.827881,513.178284 1576.828979,449.847565 1576.837158,386.516846 
	C1576.838013,380.276886 1577.125488,380.006287 1583.350220,380.000885 
	C1596.016357,379.989838 1608.682495,379.987518 1621.348633,380.001984 
	C1627.240967,380.008698 1627.833374,380.612122 1627.835571,386.703033 
	C1627.846680,416.035156 1627.840454,445.367310 1627.840454,474.699432 
	C1627.840454,476.320160 1627.840576,477.940857 1627.840576,481.006317 
	C1633.268433,475.252045 1637.837280,470.415619 1642.394043,465.567810 
	C1642.961304,464.964355 1643.426514,464.264038 1644.001221,463.668732 
	C1652.056152,455.324890 1660.133545,447.002777 1668.168579,438.639771 
	C1669.064087,437.707581 1669.696167,436.528137 1670.512817,435.513458 
	C1674.504883,430.553711 1678.401489,426.496185 1686.032959,426.940369 
	C1699.486938,427.723450 1713.019775,427.095886 1726.517822,427.236389 
	C1728.297241,427.254913 1730.065918,428.315948 1731.839478,428.894165 
	C1731.139160,430.796265 1730.929810,433.146942 1729.664062,434.532654 
	C1712.861938,452.928040 1695.943481,471.217712 1678.953857,489.440247 
	C1677.053833,491.478241 1676.664429,492.645752 1678.469971,495.219818 
	C1697.396851,522.199707 1716.137939,549.310181 1734.840454,576.446411 
	C1735.724609,577.729126 1735.767334,579.591736 1736.032715,581.548889 
z"/>
<path fill="#3A434F" opacity="1.000000" stroke="none" 
	d="
M1364.841309,573.837402 
	C1364.837280,583.168152 1364.837280,583.168335 1355.945190,583.168457 
	C1346.284790,583.168579 1336.621216,583.024414 1326.965576,583.237305 
	C1322.989258,583.324890 1321.524658,581.735474 1321.165649,577.941406 
	C1320.874512,574.867188 1319.809937,571.866272 1318.960693,568.296204 
	C1307.385864,576.162415 1296.115845,582.706726 1283.244385,585.194214 
	C1265.142944,588.692627 1247.662109,588.232300 1232.281128,575.600098 
	C1220.744995,566.125488 1215.644287,554.132019 1215.089966,539.535828 
	C1214.619507,527.140564 1217.236816,515.572876 1226.176880,506.959106 
	C1232.056763,501.293762 1239.424561,496.527069 1246.967285,493.363953 
	C1264.046387,486.201813 1282.253052,483.240234 1300.715332,481.964661 
	C1304.461792,481.705811 1308.181519,481.058685 1312.169189,480.558502 
	C1310.809326,472.542114 1305.092896,468.607605 1298.404297,467.187836 
	C1285.140991,464.372528 1271.904175,465.219635 1259.253418,470.800049 
	C1253.557495,473.312653 1247.823364,475.738892 1242.122437,478.240356 
	C1239.419312,479.426422 1237.418945,479.666962 1235.683960,476.357422 
	C1230.863525,467.162628 1225.505615,458.247559 1220.782837,449.005981 
	C1220.126099,447.720825 1221.274048,444.122711 1222.560425,443.445709 
	C1239.429077,434.568298 1256.835205,427.119110 1276.062866,424.975586 
	C1291.753540,423.226349 1307.315430,422.900085 1322.577759,427.942352 
	C1346.036865,435.692535 1359.689087,451.992981 1362.793457,476.226044 
	C1364.576294,490.141632 1364.530762,504.325012 1364.766235,518.396912 
	C1365.072754,536.713135 1364.841309,555.038269 1364.841309,573.837402 
M1265.172485,529.964905 
	C1262.875732,538.873718 1265.467896,543.241211 1274.342407,545.131775 
	C1288.929810,548.239319 1300.990356,542.324158 1312.383545,534.241028 
	C1313.081787,533.745728 1313.746704,532.659180 1313.763062,531.834473 
	C1313.880493,525.925171 1313.825806,520.012451 1313.825806,512.466064 
	C1300.842285,515.177795 1288.717896,517.121460 1276.993530,520.466675 
	C1272.677124,521.698181 1269.304565,526.238403 1265.172485,529.964905 
z"/>
<path fill="#3A434F" opacity="1.000000" stroke="none" 
	d="
M203.755829,500.773468 
	C215.161743,492.474945 228.076141,488.727631 241.248657,486.260803 
	C254.013245,483.870331 267.007782,482.710266 279.897095,480.978241 
	C280.815369,480.854858 281.698822,480.472260 283.121399,480.057892 
	C279.903503,472.187866 274.093231,468.119690 266.388367,466.751770 
	C252.792328,464.337982 239.666061,466.226685 227.051956,471.819397 
	C222.133942,473.999878 217.166199,476.068665 212.256195,478.266724 
	C208.958496,479.742981 207.085007,479.170624 205.350311,475.555054 
	C201.279282,467.070068 196.609406,458.871124 192.136719,450.580750 
	C190.280136,447.139435 190.503616,444.876099 194.458084,442.734772 
	C210.859879,433.853241 227.950043,427.166046 246.596725,424.989380 
	C263.295685,423.040070 279.860077,422.877441 295.917389,428.982574 
	C316.622345,436.854828 328.876892,451.951019 332.837219,473.482269 
	C334.411102,482.039093 334.821503,490.895325 334.909943,499.623871 
	C335.169769,525.270508 335.005188,550.921570 335.000641,576.570862 
	C334.999512,582.981384 334.846161,583.151917 328.678528,583.162903 
	C318.518768,583.180969 308.351654,582.939758 298.202271,583.264587 
	C293.180481,583.425354 291.563629,581.040588 291.109863,576.680298 
	C290.846954,574.154358 290.198090,571.668579 289.639130,568.723328 
	C283.392487,572.163513 277.477600,575.623535 271.383820,578.733154 
	C260.033936,584.525085 247.975021,587.108887 235.174500,586.927429 
	C225.229858,586.786377 216.102905,584.493958 207.681274,579.221130 
	C195.540939,571.620056 188.550171,560.851440 185.983047,546.661011 
	C183.613846,533.564636 186.085510,521.719788 193.377258,510.957458 
	C195.973679,507.125244 200.086060,504.320129 203.755829,500.773468 
M260.164673,516.632568 
	C253.396271,519.199280 246.329285,521.194092 239.957703,524.520813 
	C235.198166,527.005737 233.882599,532.229797 234.947586,537.569397 
	C235.962112,542.655823 240.118149,544.145264 244.463440,545.091125 
	C259.240601,548.307983 271.435394,542.278687 282.962433,534.090698 
	C283.621307,533.622742 284.090271,532.442627 284.105042,531.584534 
	C284.204254,525.811890 284.156738,520.036804 284.156738,513.472412 
	C276.040039,514.497375 268.512054,515.447998 260.164673,516.632568 
z"/>
<path fill="#3A434F" opacity="1.000000" stroke="none" 
	d="
M802.999878,520.537109 
	C786.051086,520.536987 769.602295,520.536987 752.593506,520.536987 
	C754.686523,530.060181 759.551636,536.721863 767.544983,540.904541 
	C783.891846,549.458374 800.461426,547.925598 817.018433,541.488037 
	C820.446533,540.155090 823.878235,538.749756 827.102661,536.999084 
	C829.897339,535.481628 831.842590,536.338867 833.168579,538.660645 
	C838.052917,547.212097 842.882568,555.801208 847.388977,564.553101 
	C847.879089,565.504883 846.573669,568.194031 845.368225,569.078064 
	C835.162903,576.562622 823.411316,580.711731 811.295898,583.707153 
	C787.442200,589.604675 763.825867,588.379944 741.661682,577.628601 
	C720.299255,567.265930 706.826965,549.568176 701.336914,526.447083 
	C695.945068,503.739990 698.554443,481.588470 710.496277,461.469879 
	C722.165833,441.809937 740.013184,429.571411 762.543945,425.478363 
	C782.748718,421.807800 802.687805,422.990723 821.061707,433.691071 
	C838.640808,443.928589 847.796509,459.975067 851.935547,479.265472 
	C854.343750,490.489227 854.642639,501.847687 852.987305,513.263672 
	C852.039429,519.801392 851.476746,520.529480 844.975952,520.534180 
	C831.150574,520.544250 817.325256,520.537231 802.999878,520.537109 
M795.695984,466.672302 
	C776.532959,458.616821 754.640747,468.455048 752.352539,486.349976 
	C770.470581,486.349976 788.561584,486.349976 807.231018,486.349976 
	C806.189087,478.166473 803.661072,471.300781 795.695984,466.672302 
z"/>
<path fill="#3A434F" opacity="1.000000" stroke="none" 
	d="
M1497.839844,423.998413 
	C1520.878662,425.349640 1534.763428,437.718628 1540.719971,459.705811 
	C1543.276978,469.144562 1544.216309,479.245148 1544.371460,489.069000 
	C1544.831543,518.227051 1544.540527,547.396973 1544.532471,576.562256 
	C1544.530640,582.855286 1544.240723,583.155762 1538.119263,583.161926 
	C1523.643921,583.176575 1509.168579,583.166626 1494.167725,583.166626 
	C1494.041748,580.635864 1493.848389,578.539490 1493.846802,576.442932 
	C1493.826416,549.110901 1493.951538,521.777893 1493.728638,494.447693 
	C1493.686523,489.278503 1492.533081,484.069122 1491.461182,478.968933 
	C1489.744629,470.801758 1483.692017,468.540985 1476.330078,467.912231 
	C1464.983032,466.943085 1456.415039,472.700775 1449.061523,480.503906 
	C1447.947388,481.686127 1447.891602,484.167236 1447.887329,486.048767 
	C1447.819214,516.047180 1447.842041,546.045776 1447.837280,576.044373 
	C1447.836182,582.858887 1447.539429,583.160583 1440.892822,583.164490 
	C1428.393433,583.171875 1415.893921,583.182861 1403.394531,583.149597 
	C1401.441528,583.144409 1399.489136,582.913574 1396.998657,582.752197 
	C1396.998657,580.610413 1396.998657,578.823669 1396.998657,577.036926 
	C1396.998657,529.039246 1397.069824,481.041260 1396.890991,433.044220 
	C1396.872681,428.122864 1398.394043,426.895508 1403.100830,427.053375 
	C1413.422119,427.399536 1423.767090,427.330505 1434.093750,427.078094 
	C1438.296143,426.975342 1439.588257,428.959290 1440.027466,432.589783 
	C1440.484131,436.364227 1441.234131,440.103149 1441.966064,444.523132 
	C1457.905396,428.948120 1476.128418,422.291687 1497.839844,423.998413 
z"/>
<path fill="#3A434F" opacity="1.000000" stroke="none" 
	d="
M433.828491,540.394531 
	C452.065308,547.913757 468.694397,544.278809 484.508209,534.517090 
	C493.016815,529.264832 492.545166,527.678711 499.051208,538.106873 
	C503.092163,544.583862 507.292847,550.961792 511.457367,557.361023 
	C513.699219,560.805908 513.590454,563.213623 509.853851,566.061768 
	C494.999969,577.383911 478.470856,583.977051 459.904327,586.076355 
	C435.787262,588.803162 413.306091,584.971497 393.112457,570.870789 
	C376.343842,559.161682 366.566376,542.846558 363.445740,522.910339 
	C361.924347,513.190796 361.151520,503.004974 362.303345,493.298798 
	C363.978821,479.179688 369.336426,466.089264 378.720184,454.878632 
	C397.539185,432.395844 422.329803,424.394867 450.675690,423.904083 
	C471.776581,423.538757 490.564178,429.397827 507.292114,442.204498 
	C510.695892,444.810333 512.253540,446.962830 508.929352,451.071594 
	C502.757568,458.700165 496.997650,466.674255 491.318726,474.683502 
	C488.916199,478.071930 486.784027,478.198547 483.507050,475.935516 
	C472.756134,468.511200 460.912842,464.501770 447.728455,466.297791 
	C424.100830,469.516449 410.712555,488.178314 414.368073,512.109070 
	C416.277039,524.605774 422.126038,534.237122 433.828491,540.394531 
z"/>
<path fill="#3A434F" opacity="1.000000" stroke="none" 
	d="
M887.998535,544.000000 
	C887.998535,506.849823 888.072327,470.199280 887.908325,433.549835 
	C887.887024,428.792786 888.778870,426.774658 894.150574,427.022308 
	C904.457397,427.497498 914.804382,427.298828 925.129028,427.095642 
	C929.526978,427.009125 930.852539,428.885834 931.094971,433.026611 
	C931.465759,439.360321 932.459656,445.657532 933.293945,452.878235 
	C935.304565,451.086670 936.794617,450.094818 937.855835,448.761536 
	C948.762329,435.059540 963.084167,427.087280 980.210388,424.700775 
	C994.219116,422.748627 1008.231873,423.145935 1021.509521,429.214996 
	C1024.416870,430.543945 1025.169556,432.118500 1024.239502,435.451508 
	C1021.291260,446.016815 1018.866272,456.727295 1016.177795,467.366211 
	C1014.676086,473.308899 1013.614868,473.527222 1007.578918,472.275116 
	C1000.471191,470.800659 993.201599,469.114990 986.019165,469.188446 
	C968.319397,469.369507 954.693176,477.510132 944.795349,492.267670 
	C940.473022,498.712128 938.703125,505.347839 938.857056,513.157898 
	C939.277100,534.473328 938.905151,555.803345 939.078857,577.125671 
	C939.115723,581.647583 937.702576,583.330383 933.062622,583.248169 
	C919.906006,583.014954 906.739868,583.014954 893.583374,583.251099 
	C889.160339,583.330505 887.830261,581.771851 887.920959,577.483521 
	C888.153381,566.493408 887.998535,555.495056 887.998535,544.000000 
z"/>
<path fill="#FDFDFD" opacity="1.000000" stroke="none" 
	d="
M1135.404053,466.555756 
	C1127.156006,470.521698 1118.669678,470.582611 1110.163208,470.536377 
	C1105.697266,470.512085 1101.231079,470.532074 1096.468750,470.532074 
	C1096.468750,454.308258 1096.468750,438.566315 1096.468750,422.037170 
	C1109.966553,422.537048 1123.774658,419.977203 1136.956665,425.768097 
	C1143.850830,428.796722 1146.641235,434.511169 1147.025391,441.683411 
	C1147.571533,451.874054 1145.729370,460.988800 1135.404053,466.555756 
z"/>
<path fill="#FCFCFD" opacity="1.000000" stroke="none" 
	d="
M1265.336914,529.617188 
	C1269.304565,526.238403 1272.677124,521.698181 1276.993530,520.466675 
	C1288.717896,517.121460 1300.842285,515.177795 1313.825806,512.466064 
	C1313.825806,520.012451 1313.880493,525.925171 1313.763062,531.834473 
	C1313.746704,532.659180 1313.081787,533.745728 1312.383545,534.241028 
	C1300.990356,542.324158 1288.929810,548.239319 1274.342407,545.131775 
	C1265.467896,543.241211 1262.875732,538.873718 1265.336914,529.617188 
z"/>
<path fill="#FDFDFD" opacity="1.000000" stroke="none" 
	d="
M260.574341,516.515625 
	C268.512054,515.447998 276.040039,514.497375 284.156738,513.472412 
	C284.156738,520.036804 284.204254,525.811890 284.105042,531.584534 
	C284.090271,532.442627 283.621307,533.622742 282.962433,534.090698 
	C271.435394,542.278687 259.240601,548.307983 244.463440,545.091125 
	C240.118149,544.145264 235.962112,542.655823 234.947586,537.569397 
	C233.882599,532.229797 235.198166,527.005737 239.957703,524.520813 
	C246.329285,521.194092 253.396271,519.199280 260.574341,516.515625 
z"/>
<path fill="#F8F8F8" opacity="1.000000" stroke="none" 
	d="
M796.036743,466.829285 
	C803.661072,471.300781 806.189087,478.166473 807.231018,486.349976 
	C788.561584,486.349976 770.470581,486.349976 752.352539,486.349976 
	C754.640747,468.455048 776.532959,458.616821 796.036743,466.829285 
z"/>
</svg>